<?xml version="1.0" encoding="utf-8"?>
<!-- Generator: Adobe Illustrator 19.0.0, SVG Export Plug-In . SVG Version: 6.00 Build 0)  -->
<svg version="1.1" id="layer" xmlns="http://www.w3.org/2000/svg" xmlns:xlink="http://www.w3.org/1999/xlink" x="0px" y="0px"
	 viewBox="-153 -46 652 652" style="enable-background:new -153 -46 652 652;" xml:space="preserve">
<style type="text/css">
	.st0{fill:#941814;}
	.st1{fill:#005A7C;}
	.st2{fill:#0099D8;}
	.st3{fill:#003C55;}
	.st4{fill:#EE3124;}
	.st5{fill:#006E96;}
	.st6{fill:#343741;}
</style>
<path id="XMLID_25_" class="st0" d="M-112.5,244.5l10.6,9c2.9-7.6,13-23.9,45.8-30.5c-2.4-0.5-4.9-0.9-7.5-1.1c-0.1,0-0.2,0-0.3,0
	c-0.7-0.1-1.4-0.1-2.1-0.1c-0.1,0-0.1,0-0.2,0c-0.6,0-1.2,0-1.8,0c-0.4,0-0.7,0-1.1,0c-0.2,0-0.4,0-0.6,0c0,0,0.1,0,0.1,0
	c0,0,0,0,0,0c-0.2,0-0.5,0-0.7,0c-0.4,0-0.7,0-1.1,0.1c-0.6,0-1.3,0.1-1.9,0.1c-0.3,0-0.6,0.1-0.9,0.1c-0.7,0.1-1.3,0.1-2,0.2
	c-0.2,0-0.5,0.1-0.7,0.1c-0.8,0.1-1.6,0.3-2.4,0.4c-0.1,0-0.2,0-0.3,0c-0.8,0.2-1.7,0.4-2.5,0.6c-0.2,0-0.3,0.1-0.5,0.1
	c-0.7,0.2-1.5,0.4-2.2,0.6c-0.3,0.1-0.6,0.2-0.9,0.3c-0.6,0.2-1.2,0.4-1.7,0.6c-0.5,0.2-0.9,0.3-1.4,0.5c-0.4,0.2-0.8,0.3-1.2,0.5
	c-0.7,0.3-1.3,0.5-2,0.8c-0.2,0.1-0.4,0.2-0.7,0.3c-0.8,0.4-1.6,0.8-2.4,1.2c0,0-0.1,0-0.1,0.1c0.1-0.1,0.2-0.1,0.3-0.2
	c-0.6,0.3-1.2,0.7-1.9,1c0.5-0.3,1-0.5,1.4-0.8c0,0,0,0-0.1,0c-1.3,0.7-2.6,1.5-3.9,2.2c0.7-0.5,1.5-0.9,2.3-1.3
	c-0.8,0.5-1.6,1-2.4,1.5c-3.2,2.1-6.2,4.4-8.8,6.8c-0.4,0.3-0.7,0.7-1.1,1.1c-0.2,0.2-0.5,0.4-0.7,0.7c-0.4,0.4-0.8,0.8-1.1,1.2
	c-0.3,0.3-0.6,0.7-1,1.1c-0.2,0.3-0.4,0.5-0.7,0.8C-113.3,242.9-113.2,243.9-112.5,244.5"/>
<path id="XMLID_24_" class="st1" d="M-76.5,321.9l3.7-16.2c0.2-0.9-0.4-1.9-1.3-2.1c-20.7-4.7-33.7-25.4-29-46.2c0,0,0.2-1.5,1.2-4
	l-10.6-9c-0.7-0.6-0.8-1.6-0.3-2.3c-12.8,15.1-17.2,36.1-10.9,55.4C-103.2,320.5-85.5,322.7-76.5,321.9"/>
<path id="XMLID_23_" class="st2" d="M-27.8,265l-16.2,5.1c-0.9,0.3-1.4,1.3-1.1,2.2c6.4,20.2-4.9,41.9-25.1,48.4
	c0,0-2.2,0.9-6.2,1.3l-2.9,12.9c-0.2,0.9-1.1,1.5-2,1.3c20.9,4.8,43.2-2.4,57.3-19.2C-16,288.8-22.4,272.7-27.8,265"/>
<path id="XMLID_22_" class="st3" d="M-79.4,334.9l2.9-12.9c-9,0.8-26.8-1.4-47.3-24.4c1,3,2.2,6,3.7,8.9c-0.1-0.1-0.1-0.2-0.2-0.3
	c0.2,0.4,0.5,0.9,0.7,1.3c-0.1-0.3-0.3-0.5-0.4-0.7c0,0,0,0,0,0c0.8,1.4,1.6,2.8,2.4,4.1c-0.5-0.8-1-1.6-1.5-2.5
	c4.4,7.6,10.5,14.3,17.9,19.3c0,0,0,0,0,0c0.6,0.4,1.2,0.8,1.8,1.1c0.4,0.3,0.8,0.5,1.3,0.8c-0.3-0.2-0.6-0.4-0.9-0.5
	c0,0,0.1,0,0.1,0.1c0.2,0.1,0.5,0.3,0.7,0.4c0.1,0.1,0.3,0.2,0.4,0.2c0.8,0.4,1.6,0.9,2.4,1.3c3.3,1.6,6.5,3,9.8,4
	c0.3,0.1,0.5,0.2,0.8,0.3c0.1,0,0.3,0.1,0.4,0.1c0.9,0.2,1.7,0.5,2.6,0.7c0.1,0,0.1,0,0.2,0C-80.5,336.4-79.6,335.8-79.4,334.9"/>
<path id="XMLID_21_" class="st4" d="M-101.9,253.5l12.2,10.4c0.7,0.6,1.8,0.5,2.4-0.2c13.8-16.1,38.2-18.1,54.3-4.4
	c0,0,2.4,1.7,5.2,5.7l12.3-3.9c0.9-0.3,1.8,0.2,2.1,1c-6.2-19.6-22.5-34.7-42.8-39.1C-88.9,229.6-99,245.9-101.9,253.5"/>
<path id="XMLID_20_" class="st5" d="M-10.6,280.1c0-0.7,0-1.4,0-2.1c0,0.5,0,1,0,1.5c0,0,0-0.1,0-0.1c0-0.4,0-0.9,0-1.3
	c0-0.1,0-0.2,0-0.3c0-0.9-0.1-1.8-0.2-2.6c0.1,0.9,0.1,1.8,0.1,2.6c0-0.9-0.1-1.9-0.2-2.8c-0.4-3.8-1-7.3-1.9-10.7
	c0-0.2-0.1-0.3-0.1-0.5l0,0c-0.2-0.5-0.3-1.1-0.5-1.6c-0.3-0.9-1.2-1.3-2.1-1l-12.3,3.9c5.3,7.7,11.8,23.8,3.6,51.9
	c1.7-2,3.3-4.2,4.7-6.5c0,0,0,0,0,0c-0.1,0.1-0.1,0.2-0.2,0.3c0.3-0.4,0.5-0.8,0.8-1.3c-0.2,0.3-0.3,0.6-0.5,0.9c0,0,0,0,0,0
	c0.6-0.9,1.1-1.9,1.6-2.8c0.2-0.3,0.3-0.6,0.5-0.9c2.6-5,4.5-10.3,5.6-15.9c0-0.1,0-0.2,0.1-0.3c0.2-0.8,0.3-1.6,0.4-2.4
	c0.1-0.6,0.2-1.2,0.2-1.8c0-0.3,0.1-0.6,0.1-0.9c0.1-0.8,0.1-1.5,0.2-2.3c0-0.2,0-0.4,0-0.6c0-0.9,0.1-1.7,0.1-2.6v0
	C-10.6,279.9-10.6,280-10.6,280.1"/>
<path id="XMLID_1_" class="st6" d="M52.4,260.9c-2.4-3.4-6.7-5-11.1-5c-5.2,0-10.3,2.3-10.3,8.1C31,276.7,61,269.5,61,292
	c0,13.5-10.7,20.1-23.1,20.1c-7.8,0-15.5-2.4-20.7-8.5l8.5-8.2c2.8,4.2,7.5,6.6,12.5,6.6c5.2,0,11.1-2.9,11.1-8.6
	c0-13.8-29.9-5.9-29.9-28.4c0-13,11.6-19.1,23.3-19.1c6.6,0,13.2,1.9,18.1,6.5L52.4,260.9z M65.1,267.9L65.1,267.9l0-10.7l10.7-3.3
	v14h11.8v9.1H75.8v18.8c0,4.3,1.2,7,6,7c1.9,0,4.5-0.4,5.8-1.3v9c-2.2,1.1-6,1.4-8.5,1.4c-11.3,0-14-5.1-14-15.2v-19.6L65.1,267.9z
	 M132.6,310.8h-10.2v-6.9h-0.2c-2,4.3-6,8-13.1,8c-11.5,0-15.6-8.1-15.6-16.9L93,267.9h11.2v21.7c0,4.7,0.4,12.6,7.9,12.6
	c7.1,0,9.8-5.2,9.8-10.9v-23.4h10.7V310.8z M174.1,304.4h-0.2c-3.1,5.2-8.8,7.5-14.7,7.5c-13.2,0-21.2-9.8-21.2-22.5
	c0-12.7,8.5-22.5,20.7-22.5c8,0,12.3,3.7,14.6,6.5h0.3v-24.2l10.7-3.5v65.1h-10.2V304.4z M148.7,289.4c0,6.7,4.7,12.9,12.6,12.9
	c7.9,0,12.6-6.2,12.6-12.9c0-6.7-4.7-12.9-12.6-12.9C153.5,276.5,148.7,282.7,148.7,289.4 M187.9,267.9h11.8l12,29.8h0.2l10.7-29.8
	h11.2L213.5,320c-3.1,8-6.9,12.2-16.3,12.2c-2.8,0-5.5-0.4-8.2-1.1l1.3-9.7c1.7,0.6,3.6,1.1,5.4,1.1c5.3,0,6.7-1.9,8.5-6.3l2.1-5.1
	L187.9,267.9z M302.5,267.9h10.7v6.8h0.2c2.3-4.9,7.1-7.9,12.7-7.9c1.3,0,2.6,0.3,3.8,0.6v10.4c-1.8-0.4-3.5-0.8-5.2-0.8
	c-10.1,0-11.5,8.5-11.5,10.8v23h-10.7V267.9z M329.9,289.4c0-13.5,10.4-22.5,23.3-22.5c13,0,23.3,9,23.3,22.5
	c0,13.5-10.4,22.5-23.3,22.5C340.3,311.9,329.9,302.9,329.9,289.4 M340.7,289.4c0,6.7,4.7,12.9,12.6,12.9c7.9,0,12.6-6.2,12.6-12.9
	c0-6.7-4.7-12.9-12.6-12.9C345.4,276.5,340.7,282.7,340.7,289.4 M420.4,310.8h-10.2v-6.9H410c-2,4.3-6,8-13.1,8
	c-11.5,0-15.6-8.1-15.6-16.9v-27.1H392v21.7c0,4.7,0.4,12.6,7.9,12.6c7.1,0,9.8-5.2,9.8-10.9v-23.4h10.7V310.8z M427.2,267.9h10.2
	v6.4h0.2c3.1-5.2,8.8-7.5,14.7-7.5c13.2,0,21.2,9.8,21.2,22.5c0,12.7-8.5,22.5-20.7,22.5c-8,0-12.3-3.8-14.6-6.5h-0.3v23.4
	l-10.7,3.5V267.9z M462.7,289.4c0-6.7-4.7-12.9-12.6-12.9c-7.9,0-12.6,6.2-12.6,12.9c0,6.7,4.7,12.9,12.6,12.9
	C458,302.2,462.7,296.1,462.7,289.4 M296,273.9h-24.2v10.2h13v15c-3.9,2.2-9.1,3.3-14.9,3.3c-13.1,0-21.7-10-21.7-23.5
	c0-12.6,8.7-22.6,21.7-22.6c6.3,0,12.5,2.2,16.5,6.2l8.3-8.4c-6.6-5.9-15.3-8-24.9-8c-19.5,0-33.4,13.2-33.4,33.5
	c0,19.8,13.9,33,33.4,33c9.8,0,18.5-2.1,26.2-6.3V273.9z"/>
</svg>
